<mxfile host="65bd71144e">
    <diagram id="oGerC4F5OT3H96q80A9f" name="Page-1">
        <mxGraphModel dx="403" dy="367" grid="1" gridSize="10" guides="1" tooltips="1" connect="1" arrows="1" fold="1" page="1" pageScale="1" pageWidth="850" pageHeight="1100" math="0" shadow="0">
            <root>
                <mxCell id="0"/>
                <mxCell id="1" parent="0"/>
                <mxCell id="9" value="" style="edgeStyle=none;html=1;fontColor=#000000;startArrow=none;" edge="1" parent="1" target="8">
                    <mxGeometry relative="1" as="geometry">
                        <mxPoint x="140" y="230" as="sourcePoint"/>
                    </mxGeometry>
                </mxCell>
                <mxCell id="19" style="edgeStyle=none;html=1;fontColor=#000000;startArrow=none;" edge="1" parent="1" source="20">
                    <mxGeometry relative="1" as="geometry">
                        <mxPoint x="270" y="100" as="targetPoint"/>
                    </mxGeometry>
                </mxCell>
                <mxCell id="2" value="Router" style="rounded=0;whiteSpace=wrap;html=1;fillColor=#f5f5f5;strokeColor=#666666;fontColor=#333333;" vertex="1" parent="1">
                    <mxGeometry x="80" y="70" width="120" height="50" as="geometry"/>
                </mxCell>
                <mxCell id="3" value="&lt;font color=&quot;#000000&quot;&gt;Route&lt;/font&gt;" style="rounded=0;whiteSpace=wrap;html=1;fillColor=#b1ddf0;strokeColor=#10739e;" vertex="1" parent="1">
                    <mxGeometry x="270" y="70" width="120" height="60" as="geometry"/>
                </mxCell>
                <mxCell id="7" value="" style="edgeStyle=none;html=1;fontColor=#000000;entryX=1;entryY=0.5;entryDx=0;entryDy=0;endArrow=none;" edge="1" parent="1" source="3">
                    <mxGeometry relative="1" as="geometry">
                        <mxPoint x="270" y="100" as="sourcePoint"/>
                        <mxPoint x="270" y="100" as="targetPoint"/>
                    </mxGeometry>
                </mxCell>
                <mxCell id="23" style="edgeStyle=none;html=1;entryX=0.5;entryY=1;entryDx=0;entryDy=0;fontColor=#000000;startArrow=none;" edge="1" parent="1" source="22" target="2">
                    <mxGeometry relative="1" as="geometry"/>
                </mxCell>
                <mxCell id="26" style="edgeStyle=none;html=1;exitX=0.5;exitY=0;exitDx=0;exitDy=0;entryX=1;entryY=0.5;entryDx=0;entryDy=0;fontColor=#000000;" edge="1" parent="1" source="8" target="22">
                    <mxGeometry relative="1" as="geometry"/>
                </mxCell>
                <mxCell id="8" value="Rrouter" style="rounded=0;whiteSpace=wrap;html=1;fillColor=#6d8764;strokeColor=#3A5431;fontColor=#ffffff;" vertex="1" parent="1">
                    <mxGeometry x="80" y="190" width="120" height="60" as="geometry"/>
                </mxCell>
                <mxCell id="21" value="" style="edgeStyle=none;html=1;fontColor=#000000;endArrow=none;" edge="1" parent="1" source="2" target="20">
                    <mxGeometry relative="1" as="geometry">
                        <mxPoint x="270" y="100" as="targetPoint"/>
                        <mxPoint x="200" y="100" as="sourcePoint"/>
                    </mxGeometry>
                </mxCell>
                <mxCell id="27" style="edgeStyle=none;html=1;entryX=1;entryY=0.5;entryDx=0;entryDy=0;fontColor=#000000;" edge="1" parent="1" source="20" target="2">
                    <mxGeometry relative="1" as="geometry"/>
                </mxCell>
                <mxCell id="30" value="*" style="edgeLabel;html=1;align=center;verticalAlign=middle;resizable=0;points=[];fontColor=#FFFFFF;" vertex="1" connectable="0" parent="27">
                    <mxGeometry x="0.7573" y="-1" relative="1" as="geometry">
                        <mxPoint y="16" as="offset"/>
                    </mxGeometry>
                </mxCell>
                <mxCell id="20" value="" style="html=1;whiteSpace=wrap;aspect=fixed;shape=isoRectangle;fontColor=#000000;" vertex="1" parent="1">
                    <mxGeometry x="250" y="89" width="20" height="12" as="geometry"/>
                </mxCell>
                <mxCell id="22" value="" style="triangle;whiteSpace=wrap;html=1;fontColor=#000000;direction=north;" vertex="1" parent="1">
                    <mxGeometry x="130" y="120" width="20" height="18" as="geometry"/>
                </mxCell>
                <UserObject label="&lt;font color=&quot;#336600&quot;&gt;abstract&lt;/font&gt;" placeholders="1" name="Variable" id="31">
                    <mxCell style="text;html=1;fillColor=none;align=center;verticalAlign=middle;whiteSpace=wrap;overflow=hidden;strokeWidth=0;" vertex="1" parent="1">
                        <mxGeometry x="80" y="70" width="80" height="20" as="geometry"/>
                    </mxCell>
                </UserObject>
                <UserObject label="&lt;font color=&quot;#336600&quot;&gt;abstract&lt;/font&gt;" placeholders="1" name="Variable" id="32">
                    <mxCell style="text;html=1;fillColor=none;align=center;verticalAlign=middle;whiteSpace=wrap;overflow=hidden;strokeWidth=0;" vertex="1" parent="1">
                        <mxGeometry x="270" y="70" width="80" height="20" as="geometry"/>
                    </mxCell>
                </UserObject>
            </root>
        </mxGraphModel>
    </diagram>
</mxfile>